# xmcd
#
# Track frame offsets: 
#        150
#        19769
#        36986
#        53264
#        71524
#        96124
#        117396
#        141437
#        160061
#        182314
#        204688
#
# Disc length: 2962 seconds
#
# Revision: 2
# Processed by: cddbd v1.5.2PL0 Copyright (c) Steve Scherf et al.
# Submitted via: ExactAudioCopy v1.0b6
#
DISCID=900b900b
DTITLE=Elisa - L'anima vola
DYEAR=2013
DGENRE=Pop
TTITLE0=Lontano da qui
TTITLE1=Pagina bianca
TTITLE2=Un filo di seta negli abissi
TTITLE3=L'anima vola
TTITLE4=Maledetto labirinto
TTITLE5=E scopro cos'è la felicità
TTITLE6=A modo tuo
TTITLE7=Specchio riflesso
TTITLE8=Ancora qui
TTITLE9=Non fa niente ormai
TTITLE10=Ecco che
EXTD=
EXTT0=
EXTT1=
EXTT2=
EXTT3=
EXTT4=
EXTT5=
EXTT6=
EXTT7=
EXTT8=
EXTT9=
EXTT10=
PLAYORDER=
